<svg xmlns="http://www.w3.org/2000/svg" xmlns:xlink="http://www.w3.org/1999/xlink" viewBox="0,0,256,256" width="30px" height="30px" fill-rule="nonzero"><g fill="#ffffff" fill-rule="nonzero" stroke="none" stroke-width="1" stroke-linecap="butt" stroke-linejoin="miter" stroke-miterlimit="10" stroke-dasharray="" stroke-dashoffset="0" font-family="none" font-weight="none" font-size="none" text-anchor="none" style="mix-blend-mode: normal"><g transform="scale(8.53333,8.53333)"><path d="M15,27c6.627,0 12,-5.373 12,-12c0,-6.627 -5.373,-12 -12,-12c-6.627,0 -12,5.373 -12,12c0,6.627 5.373,12 12,12zM9.848,20.53c-0.19,0.303 -0.515,0.47 -0.849,0.47c-0.181,0 -0.364,-0.049 -0.529,-0.152c-0.469,-0.293 -0.611,-0.91 -0.318,-1.378l0.27,-0.432c0.173,-0.022 0.36,-0.038 0.578,-0.038c0.604,0 1.105,0.191 1.526,0.445zM9,18c-0.552,0 -1,-0.448 -1,-1c0,-0.552 0.448,-1 1,-1h1.321l3.5,-5.6l-1.169,-1.87c-0.292,-0.468 -0.15,-1.085 0.318,-1.378c0.468,-0.292 1.085,-0.149 1.378,0.318l0.652,1.043l0.652,-1.043c0.293,-0.469 0.91,-0.612 1.378,-0.318c0.469,0.293 0.611,0.91 0.318,1.378l-4.669,7.47h3.187c0.255,0.183 0.537,0.467 0.835,0.941c0.221,0.351 0.329,0.709 0.389,1.059zM21.848,19.47c0.292,0.468 0.15,1.085 -0.318,1.378c-0.165,0.103 -0.348,0.152 -0.529,0.152c-0.333,0 -0.659,-0.167 -0.849,-0.47l-4.52,-7.232c0.08,-0.199 0.183,-0.413 0.336,-0.657c0.277,-0.441 0.632,-0.748 1.007,-0.968l2.704,4.327h1.321c0.552,0 1,0.448 1,1c0,0.552 -0.448,1 -1,1h-0.071z"></path></g></g></svg>
